<mxfile host="Electron" agent="Mozilla/5.0 (Windows NT 10.0; Win64; x64) AppleWebKit/537.36 (KHTML, like Gecko) draw.io/27.0.9 Chrome/134.0.6998.205 Electron/35.4.0 Safari/537.36" version="27.0.9">
  <diagram name="local" id="Kk6_3_Y1URUUISTR59o7">
    <mxGraphModel dx="1330" dy="837" grid="1" gridSize="10" guides="1" tooltips="1" connect="1" arrows="1" fold="1" page="1" pageScale="1" pageWidth="827" pageHeight="1169" math="0" shadow="0">
      <root>
        <mxCell id="0" />
        <mxCell id="1" parent="0" />
        <mxCell id="IIJiYfch3AKSF0pPYvsu-23" value="" style="rounded=1;whiteSpace=wrap;html=1;fillColor=none;" parent="1" vertex="1">
          <mxGeometry x="40" y="65" width="675" height="665" as="geometry" />
        </mxCell>
        <mxCell id="IIJiYfch3AKSF0pPYvsu-1" value="" style="rounded=1;whiteSpace=wrap;html=1;fillColor=none;" parent="1" vertex="1">
          <mxGeometry x="20" y="30" width="720" height="720" as="geometry" />
        </mxCell>
        <mxCell id="IIJiYfch3AKSF0pPYvsu-3" value="" style="rounded=1;whiteSpace=wrap;html=1;fillColor=none;" parent="1" vertex="1">
          <mxGeometry x="70" y="90" width="370" height="580" as="geometry" />
        </mxCell>
        <mxCell id="IIJiYfch3AKSF0pPYvsu-13" value="" style="rounded=1;whiteSpace=wrap;html=1;fillColor=none;" parent="1" vertex="1">
          <mxGeometry x="99" y="120" width="315" height="500" as="geometry" />
        </mxCell>
        <mxCell id="IIJiYfch3AKSF0pPYvsu-2" value="&lt;div&gt;ホストマシン&lt;/div&gt;" style="text;html=1;align=center;verticalAlign=middle;resizable=0;points=[];autosize=1;strokeColor=none;fillColor=none;" parent="1" vertex="1">
          <mxGeometry x="265" y="775" width="100" height="30" as="geometry" />
        </mxCell>
        <mxCell id="IIJiYfch3AKSF0pPYvsu-4" value="WSL2" style="text;html=1;align=center;verticalAlign=middle;resizable=0;points=[];autosize=1;strokeColor=none;fillColor=none;" parent="1" vertex="1">
          <mxGeometry x="215" y="670" width="60" height="30" as="geometry" />
        </mxCell>
        <mxCell id="IIJiYfch3AKSF0pPYvsu-5" value="" style="rounded=1;whiteSpace=wrap;html=1;fillColor=none;" parent="1" vertex="1">
          <mxGeometry x="140" y="150" width="230" height="440" as="geometry" />
        </mxCell>
        <mxCell id="IIJiYfch3AKSF0pPYvsu-6" value="Docker Desktop" style="text;html=1;align=center;verticalAlign=middle;resizable=0;points=[];autosize=1;strokeColor=none;fillColor=none;" parent="1" vertex="1">
          <mxGeometry x="190" y="620" width="110" height="30" as="geometry" />
        </mxCell>
        <mxCell id="IIJiYfch3AKSF0pPYvsu-7" value="WP&lt;div&gt;Container&lt;/div&gt;&lt;div&gt;172.18.1.30/24&lt;/div&gt;" style="rounded=1;whiteSpace=wrap;html=1;fillColor=none;" parent="1" vertex="1">
          <mxGeometry x="205" y="190" width="120" height="70" as="geometry" />
        </mxCell>
        <mxCell id="IIJiYfch3AKSF0pPYvsu-8" value="phpmyadmin&lt;div&gt;Container&lt;/div&gt;&lt;div&gt;172.18.1.20/24&lt;/div&gt;" style="rounded=1;whiteSpace=wrap;html=1;fillColor=none;" parent="1" vertex="1">
          <mxGeometry x="195" y="440" width="120" height="70" as="geometry" />
        </mxCell>
        <mxCell id="IIJiYfch3AKSF0pPYvsu-9" value="MariaDB&lt;div&gt;Container&lt;br&gt;172.18.1.10/24&lt;/div&gt;" style="rounded=1;whiteSpace=wrap;html=1;fillColor=none;" parent="1" vertex="1">
          <mxGeometry x="190" y="325" width="120" height="70" as="geometry" />
        </mxCell>
        <mxCell id="IIJiYfch3AKSF0pPYvsu-11" value="" style="sketch=0;pointerEvents=1;shadow=0;dashed=0;html=1;strokeColor=none;fillColor=#434445;aspect=fixed;labelPosition=center;verticalLabelPosition=bottom;verticalAlign=top;align=center;outlineConnect=0;shape=mxgraph.vvd.web_browser;" parent="1" vertex="1">
          <mxGeometry x="550" y="290" width="126.76" height="90" as="geometry" />
        </mxCell>
        <mxCell id="IIJiYfch3AKSF0pPYvsu-12" value="Browser" style="text;html=1;align=center;verticalAlign=middle;resizable=0;points=[];autosize=1;strokeColor=none;fillColor=none;" parent="1" vertex="1">
          <mxGeometry x="520" y="260" width="70" height="30" as="geometry" />
        </mxCell>
        <mxCell id="IIJiYfch3AKSF0pPYvsu-14" value="bridge network&lt;div&gt;172.18.1.0/24&lt;/div&gt;" style="text;html=1;align=center;verticalAlign=middle;resizable=0;points=[];autosize=1;strokeColor=none;fillColor=none;" parent="1" vertex="1">
          <mxGeometry x="205" y="555" width="100" height="40" as="geometry" />
        </mxCell>
        <mxCell id="IIJiYfch3AKSF0pPYvsu-15" value="hosts" style="swimlane;fontStyle=0;childLayout=stackLayout;horizontal=1;startSize=30;horizontalStack=0;resizeParent=1;resizeParentMax=0;resizeLast=0;collapsible=1;marginBottom=0;whiteSpace=wrap;html=1;" parent="1" vertex="1">
          <mxGeometry x="480" y="360" width="160" height="60" as="geometry" />
        </mxCell>
        <mxCell id="IIJiYfch3AKSF0pPYvsu-16" value="127.0.0.1 nissy-dev01.com" style="text;strokeColor=none;fillColor=none;align=left;verticalAlign=middle;spacingLeft=4;spacingRight=4;overflow=hidden;points=[[0,0.5],[1,0.5]];portConstraint=eastwest;rotatable=0;whiteSpace=wrap;html=1;" parent="IIJiYfch3AKSF0pPYvsu-15" vertex="1">
          <mxGeometry y="30" width="160" height="30" as="geometry" />
        </mxCell>
        <mxCell id="IIJiYfch3AKSF0pPYvsu-19" value="host.docker.internal" style="text;html=1;align=center;verticalAlign=middle;resizable=0;points=[];autosize=1;strokeColor=none;fillColor=none;" parent="1" vertex="1">
          <mxGeometry x="390" y="775" width="130" height="30" as="geometry" />
        </mxCell>
        <mxCell id="IIJiYfch3AKSF0pPYvsu-20" value="" style="shape=actor;whiteSpace=wrap;html=1;" parent="1" vertex="1">
          <mxGeometry x="760" y="310" width="40" height="60" as="geometry" />
        </mxCell>
        <mxCell id="IIJiYfch3AKSF0pPYvsu-21" value="" style="endArrow=classic;html=1;rounded=0;exitX=0.1;exitY=0.5;exitDx=0;exitDy=0;exitPerimeter=0;" parent="1" source="IIJiYfch3AKSF0pPYvsu-20" target="IIJiYfch3AKSF0pPYvsu-11" edge="1">
          <mxGeometry width="50" height="50" relative="1" as="geometry">
            <mxPoint x="740" y="780" as="sourcePoint" />
            <mxPoint x="790" y="730" as="targetPoint" />
          </mxGeometry>
        </mxCell>
        <mxCell id="IIJiYfch3AKSF0pPYvsu-22" value="&lt;font style=&quot;font-size: 18px;&quot;&gt;&lt;b&gt;≒&lt;/b&gt;&lt;/font&gt;" style="text;html=1;align=center;verticalAlign=middle;resizable=0;points=[];autosize=1;strokeColor=none;fillColor=none;" parent="1" vertex="1">
          <mxGeometry x="360" y="770" width="40" height="40" as="geometry" />
        </mxCell>
        <mxCell id="IIJiYfch3AKSF0pPYvsu-24" value="OS Windows11Pro&lt;div&gt;127.0.0.1&lt;/div&gt;&lt;div&gt;localhost&lt;/div&gt;" style="text;html=1;align=center;verticalAlign=middle;resizable=0;points=[];autosize=1;strokeColor=none;fillColor=none;" parent="1" vertex="1">
          <mxGeometry x="490" y="680" width="120" height="60" as="geometry" />
        </mxCell>
        <mxCell id="IIJiYfch3AKSF0pPYvsu-25" value="http://nissy-dev01.com" style="text;html=1;align=center;verticalAlign=middle;resizable=0;points=[];autosize=1;strokeColor=none;fillColor=none;" parent="1" vertex="1">
          <mxGeometry x="686" y="382.5" width="140" height="30" as="geometry" />
        </mxCell>
        <mxCell id="IIJiYfch3AKSF0pPYvsu-26" value="" style="endArrow=classic;html=1;rounded=0;" parent="1" source="IIJiYfch3AKSF0pPYvsu-11" target="IIJiYfch3AKSF0pPYvsu-7" edge="1">
          <mxGeometry width="50" height="50" relative="1" as="geometry">
            <mxPoint x="570" y="540" as="sourcePoint" />
            <mxPoint x="620" y="490" as="targetPoint" />
          </mxGeometry>
        </mxCell>
        <mxCell id="IIJiYfch3AKSF0pPYvsu-27" value="hosts" style="swimlane;fontStyle=0;childLayout=stackLayout;horizontal=1;startSize=30;horizontalStack=0;resizeParent=1;resizeParentMax=0;resizeLast=0;collapsible=1;marginBottom=0;whiteSpace=wrap;html=1;fillColor=#FFFFFF;" parent="1" vertex="1">
          <mxGeometry x="45" y="220" width="170" height="60" as="geometry" />
        </mxCell>
        <mxCell id="IIJiYfch3AKSF0pPYvsu-28" value="&lt;span style=&quot;color: rgba(0, 0, 0, 0); font-family: monospace; font-size: 0px; text-wrap-mode: nowrap;&quot;&gt;%3CmxGraphModel%3E%3Croot%3E%3CmxCell%20id%3D%220%22%2F%3E%3CmxCell%20id%3D%221%22%20parent%3D%220%22%2F%3E%3CmxCell%20id%3D%222%22%20value%3D%22hosts%22%20style%3D%22swimlane%3BfontStyle%3D0%3BchildLayout%3DstackLayout%3Bhorizontal%3D1%3BstartSize%3D30%3BhorizontalStack%3D0%3BresizeParent%3D1%3BresizeParentMax%3D0%3BresizeLast%3D0%3Bcollapsible%3D1%3BmarginBottom%3D0%3BwhiteSpace%3Dwrap%3Bhtml%3D1%3B%22%20vertex%3D%221%22%20parent%3D%221%22%3E%3CmxGeometry%20x%3D%22543.38%22%20y%3D%22390%22%20width%3D%22140%22%20height%3D%2260%22%20as%3D%22geometry%22%2F%3E%3C%2FmxCell%3E%3CmxCell%20id%3D%223%22%20value%3D%22127.0.0.1%20talk-care.net%22%20style%3D%22text%3BstrokeColor%3Dnone%3BfillColor%3Dnone%3Balign%3Dleft%3BverticalAlign%3Dmiddle%3BspacingLeft%3D4%3BspacingRight%3D4%3Boverflow%3Dhidden%3Bpoints%3D%5B%5B0%2C0.5%5D%2C%5B1%2C0.5%5D%5D%3BportConstraint%3Deastwest%3Brotatable%3D0%3BwhiteSpace%3Dwrap%3Bhtml%3D1%3B%22%20vertex%3D%221%22%20parent%3D%222%22%3E%3CmxGeometry%20y%3D%2230%22%20width%3D%22140%22%20height%3D%2230%22%20as%3D%22geometry%22%2F%3E%3C%2FmxCell%3E%3C%2Froot%3E%3C%2FmxGraphModel%3E&lt;/span&gt;172.18.1.30 nissy-dev01.com" style="text;align=left;verticalAlign=middle;spacingLeft=4;spacingRight=4;overflow=hidden;points=[[0,0.5],[1,0.5]];portConstraint=eastwest;rotatable=0;whiteSpace=wrap;html=1;fillColor=#FFFFFF;" parent="IIJiYfch3AKSF0pPYvsu-27" vertex="1">
          <mxGeometry y="30" width="170" height="30" as="geometry" />
        </mxCell>
      </root>
    </mxGraphModel>
  </diagram>
</mxfile>
